<svg xmlns="http://www.w3.org/2000/svg" xmlns:xlink="http://www.w3.org/1999/xlink" contentStyleType="text/css" data-diagram-type="DESCRIPTION" height="484px" preserveAspectRatio="none" style="width:898px;height:484px;background:#FFFFFF;" version="1.1" viewBox="0 0 898 484" width="898px" zoomAndPan="magnify"><defs/><g><!--cluster LeetCode Planner--><g class="cluster" data-entity="LeetCode Planner" data-source-line="6" data-uid="ent0004" id="cluster_LeetCode Planner"><rect fill="none" height="380" rx="2.5" ry="2.5" style="stroke:#181818;stroke-width:1;" width="723.6" x="169.09" y="7"/><text fill="#000000" font-family="sans-serif" font-size="14" font-weight="bold" lengthAdjust="spacing" textLength="139.7266" x="461.0267" y="21.9951">LeetCode Planner</text></g><!--entity ManageUsers--><g class="entity" data-entity="ManageUsers" data-source-line="7" data-uid="ent0005" id="entity_ManageUsers"><ellipse cx="327.0274" cy="67.0015" fill="#F1F1F1" rx="112.4574" ry="24.8915" style="stroke:#181818;stroke-width:0.5;"/><text fill="#000000" font-family="sans-serif" font-size="14" lengthAdjust="spacing" textLength="203.1846" x="225.4351" y="71.6499">Управлять пользователями</text></g><!--entity MonitorMetrics--><g class="entity" data-entity="MonitorMetrics" data-source-line="8" data-uid="ent0006" id="entity_MonitorMetrics"><ellipse cx="327.0255" cy="154.9951" fill="#F1F1F1" rx="130.8755" ry="28.5751" style="stroke:#181818;stroke-width:0.5;"/><text fill="#000000" font-family="sans-serif" font-size="14" lengthAdjust="spacing" textLength="242.4229" x="205.814" y="159.6435">Мониторить системные метрики</text></g><!--entity ManageSystemConfig--><g class="entity" data-entity="ManageSystemConfig" data-source-line="9" data-uid="ent0007" id="entity_ManageSystemConfig"><ellipse cx="327.0305" cy="248.9961" fill="#F1F1F1" rx="141.9305" ry="30.7861" style="stroke:#181818;stroke-width:0.5;"/><text fill="#000000" font-family="sans-serif" font-size="14" lengthAdjust="spacing" textLength="265.6445" x="194.2082" y="253.6445">Управлять конфигурацией системы</text></g><!--entity ViewSystemLogs--><g class="entity" data-entity="ViewSystemLogs" data-source-line="10" data-uid="ent0008" id="entity_ViewSystemLogs"><ellipse cx="327.0322" cy="342.9984" fill="#F1F1F1" rx="128.6422" ry="28.1284" style="stroke:#181818;stroke-width:0.5;"/><text fill="#000000" font-family="sans-serif" font-size="14" lengthAdjust="spacing" textLength="237.7061" x="208.1792" y="347.6469">Просматривать системные логи</text></g><!--entity BlockUser--><g class="entity" data-entity="BlockUser" data-source-line="12" data-uid="ent0009" id="entity_BlockUser"><ellipse cx="735.3223" cy="68.0005" fill="#F1F1F1" rx="119.5023" ry="26.3005" style="stroke:#181818;stroke-width:0.5;"/><text fill="#000000" font-family="sans-serif" font-size="14" lengthAdjust="spacing" textLength="218.292" x="626.1763" y="72.6489">Заблокировать пользователя</text></g><!--entity ResetUserPassword--><g class="entity" data-entity="ResetUserPassword" data-source-line="13" data-uid="ent0010" id="entity_ResetUserPassword"><ellipse cx="735.322" cy="157.0024" fill="#F1F1F1" rx="126.062" ry="27.6124" style="stroke:#181818;stroke-width:0.5;"/><text fill="#000000" font-family="sans-serif" font-size="14" lengthAdjust="spacing" textLength="232.2441" x="619.2" y="161.6508">Сбросить пароль пользователя</text></g><!--entity MonitorAPIUsage--><g class="entity" data-entity="MonitorAPIUsage" data-source-line="14" data-uid="ent0011" id="entity_MonitorAPIUsage"><ellipse cx="735.3186" cy="250.0037" fill="#F1F1F1" rx="141.3686" ry="30.6737" style="stroke:#181818;stroke-width:0.5;"/><text fill="#000000" font-family="sans-serif" font-size="14" lengthAdjust="spacing" textLength="264.4688" x="603.0842" y="254.6521">Контролировать использование API</text></g><!--entity Admin--><g class="entity" data-entity="Admin" data-source-line="3" data-uid="ent0002" id="entity_Admin"><ellipse cx="64.0474" cy="186.35" fill="#F1F1F1" rx="8" ry="8" style="stroke:#181818;stroke-width:0.5;"/><path d="M64.0474,194.35 L64.0474,221.35 M51.0474,202.35 L77.0474,202.35 M64.0474,221.35 L51.0474,236.35 M64.0474,221.35 L77.0474,236.35" fill="none" style="stroke:#181818;stroke-width:0.5;"/><text fill="#000000" font-family="sans-serif" font-size="14" lengthAdjust="spacing" textLength="116.0947" x="6" y="250.8451">Администратор</text></g><!--entity Monitoring--><g class="entity" data-entity="Monitoring" data-source-line="4" data-uid="ent0003" id="entity_Monitoring"><ellipse cx="735.3218" cy="411.35" fill="#F1F1F1" rx="8" ry="8" style="stroke:#181818;stroke-width:0.5;"/><path d="M735.3218,419.35 L735.3218,446.35 M722.3218,427.35 L748.3218,427.35 M735.3218,446.35 L722.3218,461.35 M735.3218,446.35 L748.3218,461.35" fill="none" style="stroke:#181818;stroke-width:0.5;"/><text fill="#000000" font-family="sans-serif" font-size="14" lengthAdjust="spacing" textLength="164.1035" x="653.27" y="475.8451">Система мониторинга</text></g><!--link MonitorMetrics to MonitorAPIUsage--><g class="link" data-entity-1="MonitorMetrics" data-entity-2="MonitorAPIUsage" data-source-line="16" data-uid="lnk12" id="link_MonitorMetrics_MonitorAPIUsage"><path d="M417.69,175.97 C482.89,191.21 565.2175,210.4642 631.9475,226.0642" fill="none" id="MonitorMetrics-to-MonitorAPIUsage" style="stroke:#181818;stroke-width:1;"/><polygon fill="#181818" points="637.79,227.43,629.9369,221.4863,632.9213,226.2918,628.1157,229.2762,637.79,227.43" style="stroke:#181818;stroke-width:1;"/><text fill="#000000" font-family="sans-serif" font-size="13" lengthAdjust="spacing" textLength="63.0068" x="499.96" y="193.0669">«include»</text></g><!--link ManageUsers to BlockUser--><g class="link" data-entity-1="ManageUsers" data-entity-2="BlockUser" data-source-line="17" data-uid="lnk13" id="link_ManageUsers_BlockUser"><path d="M439.85,67.28 C494.35,67.41 553.92,67.5548 609.34,67.6948" fill="none" id="ManageUsers-to-BlockUser" style="stroke:#181818;stroke-width:1;"/><polygon fill="#181818" points="615.34,67.71,606.3501,63.6873,610.34,67.6974,606.3299,71.6873,615.34,67.71" style="stroke:#181818;stroke-width:1;"/><text fill="#000000" font-family="sans-serif" font-size="13" lengthAdjust="spacing" textLength="63.0068" x="499.96" y="64.0669">«include»</text></g><!--link ManageUsers to ResetUserPassword--><g class="link" data-entity-1="ManageUsers" data-entity-2="ResetUserPassword" data-source-line="18" data-uid="lnk14" id="link_ManageUsers_ResetUserPassword"><path d="M407.81,84.68 C476.22,99.83 568.8022,120.3317 639.6822,136.0417" fill="none" id="ManageUsers-to-ResetUserPassword" style="stroke:#181818;stroke-width:1;"/><polygon fill="#181818" points="645.54,137.34,637.6188,131.4873,640.6585,136.258,635.8877,139.2977,645.54,137.34" style="stroke:#181818;stroke-width:1;"/><text fill="#000000" font-family="sans-serif" font-size="13" lengthAdjust="spacing" textLength="63.0068" x="499.96" y="103.0669">«include»</text></g><!--link MonitorMetrics to Monitoring--><g class="link" data-entity-1="MonitorMetrics" data-entity-2="Monitoring" data-source-line="20" data-uid="lnk15" id="link_MonitorMetrics_Monitoring"><path d="M420.35,175.36 C437.53,181.78 454.58,190.14 468.96,201 C548.41,261.06 516.08,324.9 593.96,387 C611.21,400.76 626.7639,409.1559 647.3739,417.1259" fill="none" id="MonitorMetrics-to-Monitoring" style="stroke:#181818;stroke-width:1;"/><polygon fill="#181818" points="652.97,419.29,646.0185,412.3131,648.3065,417.4866,643.1331,419.7747,652.97,419.29" style="stroke:#181818;stroke-width:1;"/></g><!--link Admin to ManageUsers--><g class="link" data-entity-1="Admin" data-entity-2="ManageUsers" data-source-line="23" data-uid="lnk16" id="link_Admin_ManageUsers"><path d="M90.59,177.54 C107.88,154.4 132.69,126.19 161.09,109 C182.58,96 202.1667,88.485 226.5167,82.265" fill="none" id="Admin-to-ManageUsers" style="stroke:#181818;stroke-width:1;"/><polygon fill="#181818" points="232.33,80.78,222.62,79.1319,227.4856,82.0175,224.6,86.883,232.33,80.78" style="stroke:#181818;stroke-width:1;"/></g><!--link Admin to MonitorMetrics--><g class="link" data-entity-1="Admin" data-entity-2="MonitorMetrics" data-source-line="24" data-uid="lnk17" id="link_Admin_MonitorMetrics"><path d="M122.32,202.61 C155.71,194.81 192.6975,186.1659 230.4675,177.3359" fill="none" id="Admin-to-MonitorMetrics" style="stroke:#181818;stroke-width:1;"/><polygon fill="#181818" points="236.31,175.97,226.6357,174.1238,231.4413,177.1082,228.4569,181.9138,236.31,175.97" style="stroke:#181818;stroke-width:1;"/></g><!--link Admin to ManageSystemConfig--><g class="link" data-entity-1="Admin" data-entity-2="ManageSystemConfig" data-source-line="25" data-uid="lnk18" id="link_Admin_ManageSystemConfig"><path d="M122.32,223.24 C146.25,226.27 169.0874,229.157 197.3874,232.737" fill="none" id="Admin-to-ManageSystemConfig" style="stroke:#181818;stroke-width:1;"/><polygon fill="#181818" points="203.34,233.49,194.9132,228.3921,198.3795,232.8625,193.9092,236.3289,203.34,233.49" style="stroke:#181818;stroke-width:1;"/></g><!--link Admin to ViewSystemLogs--><g class="link" data-entity-1="Admin" data-entity-2="ViewSystemLogs" data-source-line="26" data-uid="lnk19" id="link_Admin_ViewSystemLogs"><path d="M102.89,254.46 C119.54,269.56 140.08,285.89 161.09,297 C182.64,308.39 201.5397,315.5656 225.1197,322.2856" fill="none" id="Admin-to-ViewSystemLogs" style="stroke:#181818;stroke-width:1;"/><polygon fill="#181818" points="230.89,323.93,223.3309,317.6165,226.0815,322.5596,221.1383,325.3102,230.89,323.93" style="stroke:#181818;stroke-width:1;"/></g><!--SRC=[XPFDIWCn4CVl-nIXzxw0b4BjIR1G5Bqlk-aQN1FOH8g8q5RnqeBU1154V85gNQpsmrUOl96JR3ysAxMN_KZc_vl_J2OnRIcY14bOTA98o18QA2Quv_c14WafmJrym1J6C8EnxkgUxi1Gzs2kEoNYIr8BpnXVnRvaCP2YOaZmCRSo6suH8nXQMKDmXXB68yyp6NqUnPIKzYbLTH5IqenzpcbI8fSU8UUI1hx4RNY57vCVtc6Yxz3BWC0FvfZe0NpY-zrQIysciPnbyhaVqID94-cWdbnl5gQxEVyptOVKr93QeiVmlIHctXjK9IoGs_nzcppw1lKZVMsRTulVANmvsNG_P_RmGYfwLXUynI87_upwESgcfaxhoLQymVa4CuyMdeyPRMVOVH4Ppmxt0Is_sNYiqUHOSJUrrq9tOn6Sciuwi1TuMzWSBn53ovniunrGIPNXDNqfso897UwZRMGlGnLjOl55j3bTR4EjkPS_DVmzajZZh0NkKP9okLgC8pkaKc4yYCz3MgqQoNgURFog2LiZ_vHNKFphnzoKAy-prorRpyrrRjMTpMAuCrdhJNSwVW40]--></g></svg>