<svg xmlns="http://www.w3.org/2000/svg" xmlns:xlink="http://www.w3.org/1999/xlink" contentStyleType="text/css" data-diagram-type="DESCRIPTION" height="782px" preserveAspectRatio="none" style="width:733px;height:782px;background:#FFFFFF;" version="1.1" viewBox="0 0 733 782" width="733px" zoomAndPan="magnify"><defs/><g><!--cluster LeetCode Planner--><g class="cluster" data-entity="LeetCode Planner" data-source-line="5" data-uid="ent0003" id="cluster_LeetCode Planner"><rect fill="none" height="564" rx="2.5" ry="2.5" style="stroke:#181818;stroke-width:1;" width="426.65" x="301.15" y="7"/><text fill="#000000" font-family="sans-serif" font-size="14" font-weight="bold" lengthAdjust="spacing" textLength="139.7266" x="444.6117" y="21.9951">LeetCode Planner</text></g><!--entity Register--><g class="entity" data-entity="Register" data-source-line="6" data-uid="ent0004" id="entity_Register"><ellipse cx="514.4823" cy="158.9965" fill="#F1F1F1" rx="124.8823" ry="27.3765" style="stroke:#181818;stroke-width:0.5;"/><text fill="#000000" font-family="sans-serif" font-size="14" lengthAdjust="spacing" textLength="229.7422" x="399.6112" y="163.6449">Зарегистрироваться в системе</text></g><!--entity Login--><g class="entity" data-entity="Login" data-source-line="7" data-uid="ent0005" id="entity_Login"><ellipse cx="514.4843" cy="418.0029" fill="#F1F1F1" rx="76.2643" ry="17.6529" style="stroke:#181818;stroke-width:0.5;"/><text fill="#000000" font-family="sans-serif" font-size="14" lengthAdjust="spacing" textLength="121.7822" x="453.5932" y="422.6513">Войти в систему</text></g><!--entity ResetPassword--><g class="entity" data-entity="ResetPassword" data-source-line="8" data-uid="ent0006" id="entity_ResetPassword"><ellipse cx="514.4772" cy="345.0014" fill="#F1F1F1" rx="92.1572" ry="20.8314" style="stroke:#181818;stroke-width:0.5;"/><text fill="#000000" font-family="sans-serif" font-size="14" lengthAdjust="spacing" textLength="158.6074" x="435.1735" y="349.6499">Восстановить пароль</text></g><!--entity ViewFeatures--><g class="entity" data-entity="ViewFeatures" data-source-line="9" data-uid="ent0007" id="entity_ViewFeatures"><ellipse cx="514.4839" cy="513.0048" fill="#F1F1F1" rx="197.3239" ry="41.8648" style="stroke:#181818;stroke-width:0.5;"/><text fill="#000000" font-family="sans-serif" font-size="14" lengthAdjust="spacing" textLength="380.0098" x="324.479" y="517.6532">Просмотреть описание возможностей приложения</text></g><!--entity ??????????? email--><g class="entity" data-entity="........... email" data-source-line="11" data-uid="ent0008" id="entity_........... email"><ellipse cx="514.4825" cy="60.9985" fill="#F1F1F1" rx="84.3925" ry="19.2785" style="stroke:#181818;stroke-width:0.5;"/><text fill="#000000" font-family="sans-serif" font-size="14" lengthAdjust="spacing" textLength="140.9229" x="444.0211" y="65.6469">Подтвердить email</text></g><!--entity ???????? ?????? ??? ??????--><g class="entity" data-entity="........ ...... ... ......" data-source-line="12" data-uid="ent0010" id="entity_........ ...... ... ......"><ellipse cx="514.4771" cy="246.9974" fill="#F1F1F1" rx="116.8871" ry="25.7774" style="stroke:#181818;stroke-width:0.5;"/><text fill="#000000" font-family="sans-serif" font-size="14" lengthAdjust="spacing" textLength="212.7002" x="408.127" y="251.6459">Получить ссылку для сброса</text></g><!--entity UnauthorizedUser--><g class="entity" data-entity="UnauthorizedUser" data-source-line="3" data-uid="ent0002" id="entity_UnauthorizedUser"><ellipse cx="130.0757" cy="450.35" fill="#F1F1F1" rx="8" ry="8" style="stroke:#181818;stroke-width:0.5;"/><path d="M130.0757,458.35 L130.0757,485.35 M117.0757,466.35 L143.0757,466.35 M130.0757,485.35 L117.0757,500.35 M130.0757,485.35 L143.0757,500.35" fill="none" style="stroke:#181818;stroke-width:0.5;"/><text fill="#000000" font-family="sans-serif" font-size="14" lengthAdjust="spacing" textLength="248.1514" x="6" y="514.8451">Неавторизованный пользователь</text></g><!--entity ViewRequirements--><g class="entity" data-entity="ViewRequirements" data-source-line="19" data-uid="ent0016" id="entity_ViewRequirements"><ellipse cx="514.4784" cy="598.35" fill="#F1F1F1" rx="8" ry="8" style="stroke:#181818;stroke-width:0.5;"/><path d="M514.4784,606.35 L514.4784,633.35 M501.4784,614.35 L527.4784,614.35 M514.4784,633.35 L501.4784,648.35 M514.4784,633.35 L527.4784,648.35" fill="none" style="stroke:#181818;stroke-width:0.5;"/><text fill="#000000" font-family="sans-serif" font-size="14" lengthAdjust="spacing" textLength="131.7969" x="448.58" y="662.8451">ViewRequirements</text></g><!--entity DownloadApp--><g class="entity" data-entity="DownloadApp" data-source-line="20" data-uid="ent0018" id="entity_DownloadApp"><ellipse cx="514.4802" cy="709.35" fill="#F1F1F1" rx="8" ry="8" style="stroke:#181818;stroke-width:0.5;"/><path d="M514.4802,717.35 L514.4802,744.35 M501.4802,725.35 L527.4802,725.35 M514.4802,744.35 L501.4802,759.35 M514.4802,744.35 L527.4802,759.35" fill="none" style="stroke:#181818;stroke-width:0.5;"/><text fill="#000000" font-family="sans-serif" font-size="14" lengthAdjust="spacing" textLength="96.9404" x="466.01" y="773.8451">DownloadApp</text></g><!--link Register to ??????????? email--><g class="link" data-entity-1="Register" data-entity-2="........... email" data-source-line="11" data-uid="lnk9" id="link_Register_........... email"><path d="M514.48,131.18 C514.48,115 514.48,101 514.48,86.49" fill="none" id="Register-to-Подтвердить email" style="stroke:#181818;stroke-width:1;stroke-dasharray:7,7;"/><polygon fill="#181818" points="514.48,80.49,510.48,89.49,514.48,85.49,518.48,89.49,514.48,80.49" style="stroke:#181818;stroke-width:1;"/><text fill="#000000" font-family="sans-serif" font-size="13" lengthAdjust="spacing" textLength="63.0068" x="471.48" y="110.5169">«include»</text></g><!--link ResetPassword to ???????? ?????? ??? ??????--><g class="link" data-entity-1="ResetPassword" data-entity-2="........ ...... ... ......" data-source-line="12" data-uid="lnk11" id="link_ResetPassword_........ ...... ... ......"><path d="M514.48,323.74 C514.48,308.88 514.48,294.94 514.48,279.11" fill="none" id="ResetPassword-to-Получить ссылку для сброса" style="stroke:#181818;stroke-width:1;stroke-dasharray:7,7;"/><polygon fill="#181818" points="514.48,273.11,510.48,282.11,514.48,278.11,518.48,282.11,514.48,273.11" style="stroke:#181818;stroke-width:1;"/><text fill="#000000" font-family="sans-serif" font-size="13" lengthAdjust="spacing" textLength="63.0068" x="471.48" y="303.0369">«include»</text></g><!--link UnauthorizedUser to Register--><g class="link" data-entity-1="UnauthorizedUser" data-entity-2="Register" data-source-line="15" data-uid="lnk12" id="link_UnauthorizedUser_Register"><path d="M142.42,441.39 C162.38,380.66 209.75,263.62 293.15,204 C321.97,183.4 352.1521,172.8524 386.7121,166.3924" fill="none" id="UnauthorizedUser-to-Register" style="stroke:#181818;stroke-width:1;"/><polygon fill="#181818" points="392.61,165.29,383.0283,163.0118,387.6951,166.2087,384.4982,170.8756,392.61,165.29" style="stroke:#181818;stroke-width:1;"/></g><!--link UnauthorizedUser to Login--><g class="link" data-entity-1="UnauthorizedUser" data-entity-2="Login" data-source-line="16" data-uid="lnk13" id="link_UnauthorizedUser_Login"><path d="M254.44,460 C320.03,449.37 391.9374,437.7103 445.0374,429.1003" fill="none" id="UnauthorizedUser-to-Login" style="stroke:#181818;stroke-width:1;"/><polygon fill="#181818" points="450.96,428.14,441.4358,425.6321,446.0245,428.9403,442.7163,433.5289,450.96,428.14" style="stroke:#181818;stroke-width:1;"/></g><!--link UnauthorizedUser to ResetPassword--><g class="link" data-entity-1="UnauthorizedUser" data-entity-2="ResetPassword" data-source-line="17" data-uid="lnk14" id="link_UnauthorizedUser_ResetPassword"><path d="M184.04,441.48 C214.54,421.09 254.41,397.37 293.15,383 C336.01,367.11 380.1004,358.5761 421.6504,353.1561" fill="none" id="UnauthorizedUser-to-ResetPassword" style="stroke:#181818;stroke-width:1;"/><polygon fill="#181818" points="427.6,352.38,418.1582,349.5777,422.642,353.0267,419.193,357.5105,427.6,352.38" style="stroke:#181818;stroke-width:1;"/></g><!--link UnauthorizedUser to ViewFeatures--><g class="link" data-entity-1="UnauthorizedUser" data-entity-2="ViewFeatures" data-source-line="18" data-uid="lnk15" id="link_UnauthorizedUser_ViewFeatures"><path d="M254.44,490.65 C278.88,492.76 299.0523,494.4936 324.9823,496.7336" fill="none" id="UnauthorizedUser-to-ViewFeatures" style="stroke:#181818;stroke-width:1;"/><polygon fill="#181818" points="330.96,497.25,322.3377,492.4902,325.9786,496.8197,321.6491,500.4606,330.96,497.25" style="stroke:#181818;stroke-width:1;"/></g><!--link UnauthorizedUser to ViewRequirements--><g class="link" data-entity-1="UnauthorizedUser" data-entity-2="ViewRequirements" data-source-line="19" data-uid="lnk17" id="link_UnauthorizedUser_ViewRequirements"><path d="M190.79,518.44 C220.63,536.35 257.82,556.79 293.15,571 C343.74,591.35 397.9409,605.0733 442.5709,614.5533" fill="none" id="UnauthorizedUser-to-ViewRequirements" style="stroke:#181818;stroke-width:1;"/><polygon fill="#181818" points="448.44,615.8,440.4675,610.0173,443.5491,614.7611,438.8053,617.8427,448.44,615.8" style="stroke:#181818;stroke-width:1;"/></g><!--link UnauthorizedUser to DownloadApp--><g class="link" data-entity-1="UnauthorizedUser" data-entity-2="DownloadApp" data-source-line="20" data-uid="lnk19" id="link_UnauthorizedUser_DownloadApp"><path d="M151.07,518.28 C177.35,564.72 227.93,642.01 293.15,684 C346.02,718.04 412.5726,730.3949 459.7326,735.3349" fill="none" id="UnauthorizedUser-to-DownloadApp" style="stroke:#181818;stroke-width:1;"/><polygon fill="#181818" points="465.7,735.96,457.1657,731.0441,460.7272,735.4391,456.3323,739.0006,465.7,735.96" style="stroke:#181818;stroke-width:1;"/></g><!--SRC=[TLBDIiD04BxdAOQUz50VGAGWYgSUfA3tfHdRXNHNiniAYb3jmOE2uCMJz1LgRMngjRx2x1ivkqsn5Wj9O6U-d_bca-2P1QiXbQssXLYcsBHIgoWIJQjJgD0BvJIaaRkbkUjHGHEQquWhN_JbxcaAzCs5cNjODXYO-tC5X84J9JBRrgcynFZ4O1f5Nb-eLe9GgIFQ0nqZ72T2AKmhS1K1P0QRmd2Rdbcins9lLBWRT-lT-IrDt0FN7e56u6uMVKP-KXvi6zYInhBTgjmJKwSCAzP9hXz8TTsIQft168_oSRrnuOrzv66OP1cpWGRjiJ2cgzFuZyJ0uzZiaxy-GRuGcBC4-mVTWdAUY4iJZw9tRrMEvhSRbZuBZToZtMEmF9NOFK9XinGDE_Ap30qxDTYY0JF6B39YonwDoycn8sIo3RkmjoTLCybYhDK2TMN-N_xCzTrToGoBkET1FbmVM6_6o-S0hsM-uRheTHIjNpvKgxNVg_ctkxY33SJL7VyB-REJZOW6NcJyctTGsGseGzrLYHRn_ldv3m00]--></g></svg>