<svg xmlns="http://www.w3.org/2000/svg" xmlns:xlink="http://www.w3.org/1999/xlink" contentStyleType="text/css" data-diagram-type="DESCRIPTION" height="838px" preserveAspectRatio="none" style="width:1044px;height:838px;background:#FFFFFF;" version="1.1" viewBox="0 0 1044 838" width="1044px" zoomAndPan="magnify"><defs/><g><!--cluster LeetCode Planner--><g class="cluster" data-entity="LeetCode Planner" data-source-line="6" data-uid="ent0004" id="cluster_LeetCode Planner"><rect fill="none" height="734" rx="2.5" ry="2.5" style="stroke:#181818;stroke-width:1;" width="755.42" x="283.01" y="7"/><text fill="#000000" font-family="sans-serif" font-size="14" font-weight="bold" lengthAdjust="spacing" textLength="139.7266" x="590.8567" y="21.9951">LeetCode Planner</text></g><!--entity SyncData--><g class="entity" data-entity="SyncData" data-source-line="7" data-uid="ent0005" id="entity_SyncData"><ellipse cx="449.2033" cy="434.9987" fill="#F1F1F1" rx="150.1933" ry="32.4387" style="stroke:#181818;stroke-width:0.5;"/><text fill="#000000" font-family="sans-serif" font-size="14" lengthAdjust="spacing" textLength="282.8848" x="307.7609" y="439.6471">Синхронизировать данные с LeetCode</text></g><!--entity ManageStudyPlan--><g class="entity" data-entity="ManageStudyPlan" data-source-line="8" data-uid="ent0006" id="entity_ManageStudyPlan"><ellipse cx="449.1956" cy="68.0031" fill="#F1F1F1" rx="115.6656" ry="25.5331" style="stroke:#181818;stroke-width:0.5;"/><text fill="#000000" font-family="sans-serif" font-size="14" lengthAdjust="spacing" textLength="210.082" x="344.1546" y="72.6516">Управлять планом обучения</text></g><!--entity ViewStatistics--><g class="entity" data-entity="ViewStatistics" data-source-line="9" data-uid="ent0007" id="entity_ViewStatistics"><ellipse cx="449.2037" cy="161.0047" fill="#F1F1F1" rx="149.7237" ry="32.3447" style="stroke:#181818;stroke-width:0.5;"/><text fill="#000000" font-family="sans-serif" font-size="14" lengthAdjust="spacing" textLength="281.9072" x="308.2501" y="165.6532">Просматривать статистику прогресса</text></g><!--entity AnalyzeWeakTopics--><g class="entity" data-entity="AnalyzeWeakTopics" data-source-line="10" data-uid="ent0008" id="entity_AnalyzeWeakTopics"><ellipse cx="449.2027" cy="254.0025" fill="#F1F1F1" rx="117.2127" ry="25.8425" style="stroke:#181818;stroke-width:0.5;"/><text fill="#000000" font-family="sans-serif" font-size="14" lengthAdjust="spacing" textLength="213.3975" x="342.504" y="258.651">Анализировать слабые темы</text></g><!--entity ReviewProblems--><g class="entity" data-entity="ReviewProblems" data-source-line="11" data-uid="ent0009" id="entity_ReviewProblems"><ellipse cx="449.2042" cy="341.0048" fill="#F1F1F1" rx="119.3742" ry="26.2748" style="stroke:#181818;stroke-width:0.5;"/><text fill="#000000" font-family="sans-serif" font-size="14" lengthAdjust="spacing" textLength="218.0186" x="340.1949" y="345.6533">Повторять изученные задачи</text></g><!--entity ExportStats--><g class="entity" data-entity="ExportStats" data-source-line="12" data-uid="ent0010" id="entity_ExportStats"><ellipse cx="449.1975" cy="527.9975" fill="#F1F1F1" rx="114.8375" ry="25.3675" style="stroke:#181818;stroke-width:0.5;"/><text fill="#000000" font-family="sans-serif" font-size="14" lengthAdjust="spacing" textLength="208.3047" x="345.0452" y="532.6459">Экспортировать статистику</text></g><!--entity ConfigureSettings--><g class="entity" data-entity="ConfigureSettings" data-source-line="13" data-uid="ent0011" id="entity_ConfigureSettings"><ellipse cx="449.2032" cy="617.9966" fill="#F1F1F1" rx="136.9332" ry="29.7866" style="stroke:#181818;stroke-width:0.5;"/><text fill="#000000" font-family="sans-serif" font-size="14" lengthAdjust="spacing" textLength="255.1719" x="321.6172" y="622.6451">Настраивать параметры обучения</text></g><!--entity ManageProfile--><g class="entity" data-entity="ManageProfile" data-source-line="14" data-uid="ent0012" id="entity_ManageProfile"><ellipse cx="449.2016" cy="703.9963" fill="#F1F1F1" rx="91.6316" ry="20.7263" style="stroke:#181818;stroke-width:0.5;"/><text fill="#000000" font-family="sans-serif" font-size="14" lengthAdjust="spacing" textLength="157.4248" x="370.4892" y="708.6448">Управлять профилем</text></g><!--entity CreatePlan--><g class="entity" data-entity="CreatePlan" data-source-line="16" data-uid="ent0013" id="entity_CreatePlan"><ellipse cx="873.4064" cy="136.9953" fill="#F1F1F1" rx="88.9264" ry="20.1853" style="stroke:#181818;stroke-width:0.5;"/><text fill="#000000" font-family="sans-serif" font-size="14" lengthAdjust="spacing" textLength="151.3066" x="797.7531" y="141.6437">Создать новый план</text></g><!--entity EditPlan--><g class="entity" data-entity="EditPlan" data-source-line="17" data-uid="ent0014" id="entity_EditPlan"><ellipse cx="873.4105" cy="61.9961" fill="#F1F1F1" rx="89.2305" ry="20.2461" style="stroke:#181818;stroke-width:0.5;"/><text fill="#000000" font-family="sans-serif" font-size="14" lengthAdjust="spacing" textLength="151.9971" x="797.412" y="66.6445">Редактировать план</text></g><!--entity TrackPlanProgress--><g class="entity" data-entity="TrackPlanProgress" data-source-line="18" data-uid="ent0015" id="entity_TrackPlanProgress"><ellipse cx="873.4102" cy="220.998" fill="#F1F1F1" rx="131.2902" ry="28.658" style="stroke:#181818;stroke-width:0.5;"/><text fill="#000000" font-family="sans-serif" font-size="14" lengthAdjust="spacing" textLength="243.2979" x="751.7613" y="225.6465">Отслеживать выполнение плана</text></g><!--entity ViewCharts--><g class="entity" data-entity="ViewCharts" data-source-line="19" data-uid="ent0016" id="entity_ViewCharts"><ellipse cx="873.4068" cy="314.9954" fill="#F1F1F1" rx="140.1768" ry="30.4354" style="stroke:#181818;stroke-width:0.5;"/><text fill="#000000" font-family="sans-serif" font-size="14" lengthAdjust="spacing" textLength="261.9736" x="742.42" y="319.6438">Просматривать графики прогресса</text></g><!--entity GenerateTopicReport--><g class="entity" data-entity="GenerateTopicReport" data-source-line="20" data-uid="ent0017" id="entity_GenerateTopicReport"><ellipse cx="873.41" cy="407.002" fill="#F1F1F1" rx="121.66" ry="26.732" style="stroke:#181818;stroke-width:0.5;"/><text fill="#000000" font-family="sans-serif" font-size="14" lengthAdjust="spacing" textLength="222.8926" x="761.9637" y="411.6504">Генерировать отчет по темам</text></g><!--entity GetReviewTasks--><g class="entity" data-entity="GetReviewTasks" data-source-line="21" data-uid="ent0018" id="entity_GetReviewTasks"><ellipse cx="873.4061" cy="597.0012" fill="#F1F1F1" rx="134.0061" ry="29.2012" style="stroke:#181818;stroke-width:0.5;"/><text fill="#000000" font-family="sans-serif" font-size="14" lengthAdjust="spacing" textLength="249.0195" x="748.8964" y="601.6497">Получить задачи для повторения</text></g><!--entity SetSpacedRepetition--><g class="entity" data-entity="SetSpacedRepetition" data-source-line="22" data-uid="ent0019" id="entity_SetSpacedRepetition"><ellipse cx="873.4079" cy="501.0036" fill="#F1F1F1" rx="149.0179" ry="32.2036" style="stroke:#181818;stroke-width:0.5;"/><text fill="#000000" font-family="sans-serif" font-size="14" lengthAdjust="spacing" textLength="280.4375" x="733.1891" y="505.652">Настроить интервальные повторения</text></g><!--entity AuthorizedUser--><g class="entity" data-entity="AuthorizedUser" data-source-line="3" data-uid="ent0002" id="entity_AuthorizedUser"><ellipse cx="121.0044" cy="372.35" fill="#F1F1F1" rx="8" ry="8" style="stroke:#181818;stroke-width:0.5;"/><path d="M121.0044,380.35 L121.0044,407.35 M108.0044,388.35 L134.0044,388.35 M121.0044,407.35 L108.0044,422.35 M121.0044,407.35 L134.0044,422.35" fill="none" style="stroke:#181818;stroke-width:0.5;"/><text fill="#000000" font-family="sans-serif" font-size="14" lengthAdjust="spacing" textLength="230.0088" x="6" y="436.8451">Авторизованный пользователь</text></g><!--entity LeetCodeAPI--><g class="entity" data-entity="LeetCodeAPI" data-source-line="4" data-uid="ent0003" id="entity_LeetCodeAPI"><ellipse cx="873.4175" cy="765.35" fill="#F1F1F1" rx="8" ry="8" style="stroke:#181818;stroke-width:0.5;"/><path d="M873.4175,773.35 L873.4175,800.35 M860.4175,781.35 L886.4175,781.35 M873.4175,800.35 L860.4175,815.35 M873.4175,800.35 L886.4175,815.35" fill="none" style="stroke:#181818;stroke-width:0.5;"/><text fill="#000000" font-family="sans-serif" font-size="14" lengthAdjust="spacing" textLength="92.9551" x="826.94" y="829.8451">LeetCode API</text></g><!--link SyncData to LeetCodeAPI--><g class="link" data-entity-1="SyncData" data-entity-2="LeetCodeAPI" data-source-line="24" data-uid="lnk20" id="link_SyncData_LeetCodeAPI"><path d="M555.06,458.22 C571.1,465 586.56,473.74 599.4,485 C611.29,495.44 712.64,730.41 724.4,741 C752.95,766.72 788.896,779.1642 820.796,786.3342" fill="none" id="SyncData-to-LeetCodeAPI" style="stroke:#181818;stroke-width:1;"/><polygon fill="#181818" points="826.65,787.65,818.7462,781.7737,821.7717,786.5535,816.9919,789.579,826.65,787.65" style="stroke:#181818;stroke-width:1;"/></g><!--link ManageStudyPlan to CreatePlan--><g class="link" data-entity-1="ManageStudyPlan" data-entity-2="CreatePlan" data-source-line="25" data-uid="lnk21" id="link_ManageStudyPlan_CreatePlan"><path d="M543.38,83.23 C620.73,95.87 723.2486,112.6223 794.1686,124.2123" fill="none" id="ManageStudyPlan-to-CreatePlan" style="stroke:#181818;stroke-width:1;"/><polygon fill="#181818" points="800.09,125.18,791.853,119.7808,795.1555,124.3736,790.5627,127.6761,800.09,125.18" style="stroke:#181818;stroke-width:1;"/><text fill="#000000" font-family="sans-serif" font-size="13" lengthAdjust="spacing" textLength="63.0068" x="630.4" y="95.0669">«include»</text></g><!--link ManageStudyPlan to EditPlan--><g class="link" data-entity-1="ManageStudyPlan" data-entity-2="EditPlan" data-source-line="26" data-uid="lnk22" id="link_ManageStudyPlan_EditPlan"><path d="M565.02,66.37 C634,65.39 714.4406,64.2448 778.0806,63.3448" fill="none" id="ManageStudyPlan-to-EditPlan" style="stroke:#181818;stroke-width:1;"/><polygon fill="#181818" points="784.08,63.26,775.0243,59.3877,779.0805,63.3307,775.1375,67.3869,784.08,63.26" style="stroke:#181818;stroke-width:1;"/><text fill="#000000" font-family="sans-serif" font-size="13" lengthAdjust="spacing" textLength="63.0068" x="630.4" y="61.0669">«include»</text></g><!--link ManageStudyPlan to TrackPlanProgress--><g class="link" data-entity-1="ManageStudyPlan" data-entity-2="TrackPlanProgress" data-source-line="27" data-uid="lnk23" id="link_ManageStudyPlan_TrackPlanProgress"><path d="M531.75,86.26 C554.23,92.69 578.23,100.89 599.4,111 C614.08,118.02 615.25,123.94 629.4,132 C680.05,160.86 736.0518,181.5444 784.6218,196.6844" fill="none" id="ManageStudyPlan-to-TrackPlanProgress" style="stroke:#181818;stroke-width:1;"/><polygon fill="#181818" points="790.35,198.47,782.9481,191.9729,785.5765,196.982,780.5674,199.6104,790.35,198.47" style="stroke:#181818;stroke-width:1;"/><text fill="#000000" font-family="sans-serif" font-size="13" lengthAdjust="spacing" textLength="63.0068" x="630.4" y="128.0669">«include»</text></g><!--link ViewStatistics to ViewCharts--><g class="link" data-entity-1="ViewStatistics" data-entity-2="ViewCharts" data-source-line="28" data-uid="lnk24" id="link_ViewStatistics_ViewCharts"><path d="M535.14,187.87 C556.28,194.99 578.78,202.95 599.4,211 C656.1,233.14 667.58,245.14 724.4,267 C745.57,275.15 763.0836,281.2662 784.7236,288.2962" fill="none" id="ViewStatistics-to-ViewCharts" style="stroke:#181818;stroke-width:1;"/><polygon fill="#181818" points="790.43,290.15,783.1062,283.565,785.6746,288.6052,780.6345,291.1736,790.43,290.15" style="stroke:#181818;stroke-width:1;"/><text fill="#000000" font-family="sans-serif" font-size="13" lengthAdjust="spacing" textLength="63.0068" x="630.4" y="221.0669">«include»</text></g><!--link AnalyzeWeakTopics to GenerateTopicReport--><g class="link" data-entity-1="AnalyzeWeakTopics" data-entity-2="GenerateTopicReport" data-source-line="29" data-uid="lnk25" id="link_AnalyzeWeakTopics_GenerateTopicReport"><path d="M545.95,268.96 C565.12,275.27 584.06,284.24 599.4,297 C622.32,316.07 605.75,338.84 629.4,357 C664.32,383.83 704.1868,396.3174 746.5968,402.6974" fill="none" id="AnalyzeWeakTopics-to-GenerateTopicReport" style="stroke:#181818;stroke-width:1;"/><polygon fill="#181818" points="752.53,403.59,744.2252,398.2956,747.5856,402.8462,743.0351,406.2066,752.53,403.59" style="stroke:#181818;stroke-width:1;"/><text fill="#000000" font-family="sans-serif" font-size="13" lengthAdjust="spacing" textLength="63.0068" x="630.4" y="353.0669">«include»</text></g><!--link ReviewProblems to GetReviewTasks--><g class="link" data-entity-1="ReviewProblems" data-entity-2="GetReviewTasks" data-source-line="30" data-uid="lnk26" id="link_ReviewProblems_GetReviewTasks"><path d="M548.81,355.74 C567.35,362.25 585.32,371.59 599.4,385 C628.71,412.92 606.43,437.67 629.4,471 C660.71,516.46 675.97,524.51 724.4,551 C742.34,560.82 756.9679,566.993 776.6979,573.453" fill="none" id="ReviewProblems-to-GetReviewTasks" style="stroke:#181818;stroke-width:1;"/><polygon fill="#181818" points="782.4,575.32,775.0915,568.7181,777.6482,573.7642,772.6021,576.3209,782.4,575.32" style="stroke:#181818;stroke-width:1;"/><text fill="#000000" font-family="sans-serif" font-size="13" lengthAdjust="spacing" textLength="63.0068" x="630.4" y="467.0669">«include»</text></g><!--link ReviewProblems to SetSpacedRepetition--><g class="link" data-entity-1="ReviewProblems" data-entity-2="SetSpacedRepetition" data-source-line="31" data-uid="lnk27" id="link_ReviewProblems_SetSpacedRepetition"><path d="M536.63,359.13 C557.95,365.56 580.17,374.02 599.4,385 C615.23,394.05 614,403.23 629.4,413 C673.91,441.26 723.017,460.3501 769.337,474.6501" fill="none" id="ReviewProblems-to-SetSpacedRepetition" style="stroke:#181818;stroke-width:1;"/><polygon fill="#181818" points="775.07,476.42,767.6504,469.9431,770.2925,474.9451,765.2905,477.5871,775.07,476.42" style="stroke:#181818;stroke-width:1;"/><text fill="#000000" font-family="sans-serif" font-size="13" lengthAdjust="spacing" textLength="63.0068" x="630.4" y="409.0669">«include»</text></g><!--link AuthorizedUser to SyncData--><g class="link" data-entity-1="AuthorizedUser" data-entity-2="SyncData" data-source-line="34" data-uid="lnk28" id="link_AuthorizedUser_SyncData"><path d="M236.09,413.54 C260.71,416.03 281.0006,418.0851 306.3606,420.6551" fill="none" id="AuthorizedUser-to-SyncData" style="stroke:#181818;stroke-width:1;"/><polygon fill="#181818" points="312.33,421.26,303.7792,416.373,307.3555,420.7559,302.9726,424.3322,312.33,421.26" style="stroke:#181818;stroke-width:1;"/></g><!--link AuthorizedUser to ManageStudyPlan--><g class="link" data-entity-1="AuthorizedUser" data-entity-2="ManageStudyPlan" data-source-line="35" data-uid="lnk29" id="link_AuthorizedUser_ManageStudyPlan"><path d="M131.26,363.58 C148.44,300.78 191.36,176.6 275.01,111 C294.88,95.42 313.8454,86.9186 338.3854,80.4986" fill="none" id="AuthorizedUser-to-ManageStudyPlan" style="stroke:#181818;stroke-width:1;"/><polygon fill="#181818" points="344.19,78.98,334.4706,77.3881,339.3528,80.2455,336.4954,85.1276,344.19,78.98" style="stroke:#181818;stroke-width:1;"/></g><!--link AuthorizedUser to ViewStatistics--><g class="link" data-entity-1="AuthorizedUser" data-entity-2="ViewStatistics" data-source-line="36" data-uid="lnk30" id="link_AuthorizedUser_ViewStatistics"><path d="M142.99,363.46 C168.57,320.07 215.8,250.49 275.01,211 C293.36,198.76 309.0418,191.3489 330.3918,184.3089" fill="none" id="AuthorizedUser-to-ViewStatistics" style="stroke:#181818;stroke-width:1;"/><polygon fill="#181818" points="336.09,182.43,326.2901,181.4496,331.3415,183.9958,328.7953,189.0472,336.09,182.43" style="stroke:#181818;stroke-width:1;"/></g><!--link AuthorizedUser to AnalyzeWeakTopics--><g class="link" data-entity-1="AuthorizedUser" data-entity-2="AnalyzeWeakTopics" data-source-line="37" data-uid="lnk31" id="link_AuthorizedUser_AnalyzeWeakTopics"><path d="M168.62,363.47 C197.65,341.19 236.66,314.24 275.01,297 C300.58,285.51 323.8869,278.1753 350.8669,271.6753" fill="none" id="AuthorizedUser-to-AnalyzeWeakTopics" style="stroke:#181818;stroke-width:1;"/><polygon fill="#181818" points="356.7,270.27,347.0135,268.4892,351.8391,271.4411,348.8872,276.2667,356.7,270.27" style="stroke:#181818;stroke-width:1;"/></g><!--link AuthorizedUser to ReviewProblems--><g class="link" data-entity-1="AuthorizedUser" data-entity-2="ReviewProblems" data-source-line="38" data-uid="lnk32" id="link_AuthorizedUser_ReviewProblems"><path d="M236.09,380.67 C275.68,373.26 313.6222,366.1625 351.1222,359.1525" fill="none" id="AuthorizedUser-to-ReviewProblems" style="stroke:#181818;stroke-width:1;"/><polygon fill="#181818" points="357.02,358.05,347.4382,355.7719,352.1051,358.9688,348.9082,363.6356,357.02,358.05" style="stroke:#181818;stroke-width:1;"/></g><!--link AuthorizedUser to ExportStats--><g class="link" data-entity-1="AuthorizedUser" data-entity-2="ExportStats" data-source-line="39" data-uid="lnk33" id="link_AuthorizedUser_ExportStats"><path d="M184.3,440.46 C211.41,455.96 244.02,472.97 275.01,485 C302.59,495.71 327.8629,503.0212 356.0229,509.7212" fill="none" id="AuthorizedUser-to-ExportStats" style="stroke:#181818;stroke-width:1;"/><polygon fill="#181818" points="361.86,511.11,354.0303,505.1354,356.9958,509.9527,352.1786,512.9182,361.86,511.11" style="stroke:#181818;stroke-width:1;"/></g><!--link AuthorizedUser to ConfigureSettings--><g class="link" data-entity-1="AuthorizedUser" data-entity-2="ConfigureSettings" data-source-line="40" data-uid="lnk34" id="link_AuthorizedUser_ConfigureSettings"><path d="M146.88,440.43 C173.88,479.08 220.52,537.59 275.01,571 C295.2,583.38 312.9044,590.8548 335.9244,597.6348" fill="none" id="AuthorizedUser-to-ConfigureSettings" style="stroke:#181818;stroke-width:1;"/><polygon fill="#181818" points="341.68,599.33,334.1768,592.9502,336.8837,597.9174,331.9166,600.6243,341.68,599.33" style="stroke:#181818;stroke-width:1;"/></g><!--link AuthorizedUser to ManageProfile--><g class="link" data-entity-1="AuthorizedUser" data-entity-2="ManageProfile" data-source-line="41" data-uid="lnk35" id="link_AuthorizedUser_ManageProfile"><path d="M133.37,440.49 C152.61,498.61 197.26,608 275.01,665 C299.62,683.04 325.1887,691.8762 354.5387,697.2662" fill="none" id="AuthorizedUser-to-ManageProfile" style="stroke:#181818;stroke-width:1;"/><polygon fill="#181818" points="360.44,698.35,352.3105,692.7902,355.5222,697.4469,350.8655,700.6586,360.44,698.35" style="stroke:#181818;stroke-width:1;"/></g><!--SRC=[ZLLTJzH057tlhvZmpXymX8GW8IQQ41RrUMmlosHhIwQpAXWJ2neU8874PqNZiqb1LYkxM_x2p3_opkqMsavNUTcFcNlFFVVUqzCGjXLJCPEYlwDO82JuIiIHvt5VnP8jw3DzQGvqOTxhNF_MXRxKcPxggJdMVvY-mOEnEQakC71a_oymdh2LeTg9fTY7u6a2ii9x3A1Mum3OoiOZ2giEyB_dsUeyweTG2zm8UHI1N61lFSQ62VWymMlz3VbCpKVaLI0VoosdtqJ3d31zTKjqn4nwMuUAzlOY_o5Nl87uNTyWGeO8OtDQOjpeCQ4KUiBmuy8ScYDi4UkPKm9wmYFUXvuQ1dkMPmFltF8ngPuG8pk_Yfj9SL9sMZdzolMrEMHKlT0_yNE4nwdEgC8p0QzxYYkHAE4dZG9dI2H3Xcxpc6s9NvJDswrCp76vbOY7U_lm7FXWAzvj8vvRZ7BTrGWG_BRhSfXOBRFJnSESC3VX5PBSaF6B45us0NzWQwcL2G8UE2JTAH3UsflTM2hRT1FiCqQdDCgiDan4p-XeWdF3ItFSlQhLEDeM_Q647YWbedxot-NJ_ZvWgR4TO6tVsEgs2041Mf8iS3PN5Qyf3NFsd92EIXuIk097BL-nXfNijJEdHlPQ89IJ-mNZKcBvgpuOMvoUKAH2ax3BgoHTgcjBSdzWyR2bleGakQU2IQOP3UTQv__IxkeEbwqzVY8s8mlORBJ0hoExHNAMcN3jPWbj7T06S7Iasqsm6d74EwQrvoLSJQVM3d2nfMDLXbPNnpgeKiPRF1dCarrH8LlhEQ0Eh1rQ1vmz6lFWKNEzNUv3WBn12R9OKa_bH6nnSRdXXQpjBHHn9nxsW2qjYSWFXm4iByy9hzHohs172qvMquiewMx5JhHZDPJGiKKdisaeixJwVkwJqJ7oLjexpsk-fCgywjtGSTUs-uwGbbztHBWMt17KyjIEYBfBTboxTZUtdvcT_GK0]--></g></svg>